<svg xmlns="http://www.w3.org/2000/svg" viewBox="0 0 14 12" shape-rendering="crispEdges">
  <!-- D02 Golden Retriever - Refined Cuteness -->
  <rect x="4" y="1" width="6" height="1" fill="#F2C867" />
  <rect x="3" y="2" width="8" height="1" fill="#F2C867" />
  <rect x="2" y="3" width="2" height="1" fill="#DAA14A" /><rect x="4" y="3" width="6" height="1" fill="#F2C867" /><rect x="10" y="3" width="2" height="1" fill="#DAA14A" />
  <rect x="2" y="4" width="2" height="1" fill="#DAA14A" /><rect x="4" y="4" width="1" height="1" fill="#F2C867" /><rect x="5" y="4" width="1" height="1" fill="#323F49" /><rect x="6" y="4" width="2" height="1" fill="#F2C867" /><rect x="8" y="4" width="1" height="1" fill="#323F49" /><rect x="9" y="4" width="1" height="1" fill="#F2C867" /><rect x="10" y="4" width="2" height="1" fill="#DAA14A" />
  <rect x="2" y="5" width="2" height="1" fill="#DAA14A" /><rect x="4" y="5" width="2" height="1" fill="#F2C867" /><rect x="6" y="5" width="2" height="1" fill="#323F49" /><rect x="8" y="5" width="2" height="1" fill="#F2C867" /><rect x="10" y="5" width="2" height="1" fill="#DAA14A" />
  <rect x="2" y="6" width="2" height="1" fill="#DAA14A" /><rect x="4" y="6" width="3" height="1" fill="#F2C867" /><rect x="7" y="6" width="1" height="1" fill="#FFAAAB" /><rect x="8" y="6" width="2" height="1" fill="#F2C867" /><rect x="10" y="6" width="2" height="1" fill="#DAA14A" /><rect x="12" y="6" width="2" height="1" fill="#F2C867" />
  <rect x="2" y="7" width="2" height="1" fill="#DAA14A" /><rect x="4" y="7" width="6" height="1" fill="#F2C867" /><rect x="10" y="7" width="2" height="1" fill="#DAA14A" />
  <rect x="4" y="8" width="2" height="1" fill="#F2C867" /><rect x="8" y="8" width="2" height="1" fill="#F2C867" />
</svg>
