<svg xmlns="http://www.w3.org/2000/svg" viewBox="0 0 14 12" shape-rendering="crispEdges">
  <!-- D07 Toy Poodle - Collar Removed, Increased Cuteness -->
  <rect x="4" y="0" width="6" height="1" fill="#965F3E" />
  <rect x="3" y="1" width="8" height="1" fill="#965F3E" />
  <rect x="2" y="2" width="10" height="1" fill="#965F3E" />
  <rect x="2" y="3" width="2" height="1" fill="#613922" /><rect x="4" y="3" width="1" height="1" fill="#965F3E" /><rect x="5" y="3" width="1" height="1" fill="#323F49" /><rect x="6" y="3" width="2" height="1" fill="#965F3E" /><rect x="8" y="3" width="1" height="1" fill="#323F49" /><rect x="9" y="3" width="1" height="1" fill="#965F3E" /><rect x="10" y="3" width="2" height="1" fill="#613922" />
  <rect x="2" y="4" width="2" height="1" fill="#613922" /><rect x="4" y="4" width="1" height="1" fill="#FFAAAB" /><rect x="5" y="4" width="1" height="1" fill="#965F3E" /><rect x="6" y="4" width="2" height="1" fill="#323F49" /><rect x="8" y="4" width="1" height="1" fill="#965F3E" /><rect x="9" y="4" width="1" height="1" fill="#FFAAAB" /><rect x="10" y="4" width="2" height="1" fill="#613922" />
  <rect x="2" y="5" width="2" height="1" fill="#613922" /><rect x="4" y="5" width="6" height="1" fill="#965F3E" /><rect x="10" y="5" width="2" height="1" fill="#613922" />
  <rect x="3" y="6" width="1" height="1" fill="#613922" /><rect x="4" y="6" width="6" height="1" fill="#965F3E" /><rect x="10" y="6" width="1" height="1" fill="#613922" />
  <rect x="3" y="7" width="1" height="1" fill="#613922" /><rect x="4" y="7" width="6" height="1" fill="#965F3E" /><rect x="10" y="7" width="1" height="1" fill="#613922" />
  <rect x="4" y="8" width="2" height="1" fill="#965F3E" /><rect x="8" y="8" width="2" height="1" fill="#965F3E" />
</svg>
